<svg width="37" height="37" viewBox="0 0 37 37" fill="none" xmlns="http://www.w3.org/2000/svg">
<path d="M10.0232 18.6469C11.5408 11.0729 20.0232 9.14692 29.0232 13.1469C38.0232 17.1469 25.6879 6.14829 21.5234 4.64692C17.2351 3.10091 13.7801 4.06502 10.0232 6.64692C4.72992 10.2848 1.14209 16.6861 4.52338 22.1469C5.76119 24.146 6.99733 24.9538 9.02338 26.1469C15.2851 29.8344 30.4473 17.4943 27.5234 24.1469C26.4664 26.5517 25.2277 27.7176 23.0234 29.1465C20.1619 31.0015 16.5234 32.1465 14.5234 31.1469C11.7895 29.7806 21.5234 27.6469 21.5234 27.6469C21.5234 27.6469 10.2233 27.1469 11.0234 31.1469C11.5572 33.8154 17.9259 33.578 23.5234 31.4389C28.4141 29.5699 32.716 26.2493 32.0232 22.1469C31.2826 17.7609 25.101 19.1751 19.4646 20.4645C14.0773 21.697 9.188 22.8155 10.0232 18.6469Z" fill="url(#paint0_linear_703_11117)"/>
<path d="M29.0232 13.1469C20.0232 9.14692 11.5408 11.0729 10.0232 18.6469C9.188 22.8155 14.0773 21.697 19.4646 20.4645C25.101 19.1751 31.2826 17.7609 32.0232 22.1469C32.716 26.2493 28.4141 29.5699 23.5234 31.4389C30.5234 29.8224 39.0234 19.1465 28.5234 18.1465C24.2461 17.7391 20.3836 18.4104 17.5105 18.9097C13.3309 19.6361 11.2454 19.9986 13.0234 16.1465C15.4236 10.9465 24.69 11.9801 29.0232 13.1469Z" fill="url(#paint1_linear_703_11117)"/>
<path d="M29.0234 13.1466C20.0234 9.14658 11.6346 10.6085 10.117 18.1825C9.28173 22.3511 14.171 21.2326 19.5583 20.0001C25.1948 18.7107 31.3763 17.2965 32.117 21.6825C32.8097 25.7849 29.4141 29.2775 24.5234 31.1465C31.5234 29.53 39.1172 18.6821 28.6172 17.6821C24.3398 17.2747 20.4773 17.946 17.6043 18.4453C13.4246 19.1718 11.7454 19.9987 13.5234 16.1466C15.9236 10.9466 24.6902 11.9798 29.0234 13.1466Z" fill="white" fill-opacity="0.65"/>
<defs>
<linearGradient id="paint0_linear_703_11117" x1="10.0234" y1="5.14648" x2="32.5234" y2="32.1465" gradientUnits="userSpaceOnUse">
<stop stop-color="#5041FF"/>
<stop offset="1" stop-color="#BD00FF"/>
</linearGradient>
<linearGradient id="paint1_linear_703_11117" x1="10.0234" y1="5.14648" x2="32.5234" y2="32.1465" gradientUnits="userSpaceOnUse">
<stop stop-color="#5041FF"/>
<stop offset="1" stop-color="#BD00FF"/>
</linearGradient>
</defs>
</svg>
